<?xml version="1.0" encoding="UTF-8"?>
<svg width="550px" height="72px" viewBox="0 0 550 72" version="1.1" xmlns="http://www.w3.org/2000/svg" xmlns:xlink="http://www.w3.org/1999/xlink">
    <!-- Generator: Sketch 64 (93537) - https://sketch.com -->
    <title>Group</title>
    <desc>Created with Sketch.</desc>
    <g id="Page-1" stroke="none" stroke-width="1" fill="none" fill-rule="evenodd">
        <g id="Artboard" transform="translate(-84.000000, -325.000000)">
            <g id="Group" transform="translate(87.000000, 325.000000)">
                <path d="M443.5,69.36 L443.5,64.86 L426.46,64.86 L426.46,50.46 L441.7,50.46 L441.7,45.96 L426.46,45.96 L426.46,31.98 L443.5,31.98 L443.5,27.48 L421,27.48 L421,69.36 L443.5,69.36 Z M474.28,69.36 L474.28,64.86 L457.24,64.86 L457.24,50.46 L472.48,50.46 L472.48,45.96 L457.24,45.96 L457.24,31.98 L474.28,31.98 L474.28,27.48 L451.78,27.48 L451.78,69.36 L474.28,69.36 Z M488.02,69.36 L488.02,52.26 L494.62,52.26 L504.58,69.36 L511.12,69.36 L500.62,51.84 C503.94,51.12 506.43,49.66 508.09,47.46 C509.75,45.26 510.58,42.72 510.58,39.84 C510.58,37.48 510.04,35.38 508.96,33.54 C507.88,31.7 506.25,30.24 504.07,29.16 C501.89,28.08 499.22,27.54 496.06,27.54 L496.06,27.54 L482.56,27.54 L482.56,69.36 L488.02,69.36 Z M496.06,47.88 L488.02,47.88 L488.02,32.04 L496.06,32.04 C499.06,32.04 501.29,32.72 502.75,34.08 C504.21,35.44 504.94,37.36 504.94,39.84 C504.94,42.28 504.2,44.23 502.72,45.69 C501.24,47.15 499.02,47.88 496.06,47.88 L496.06,47.88 Z M532.3,69.78 C535.18,69.78 537.68,69.22 539.8,68.1 C541.92,66.98 543.52,65.52 544.6,63.72 C545.68,61.92 546.22,60 546.22,57.96 C546.22,55.32 545.62,53.23 544.42,51.69 C543.22,50.15 541.78,49.01 540.1,48.27 C538.42,47.53 536.2,46.78 533.44,46.02 C531.16,45.38 529.39,44.81 528.13,44.31 C526.87,43.81 525.81,43.08 524.95,42.12 C524.09,41.16 523.66,39.92 523.66,38.4 C523.66,36.28 524.38,34.63 525.82,33.45 C527.26,32.27 529.12,31.68 531.4,31.68 C533.84,31.68 535.8,32.29 537.28,33.51 C538.76,34.73 539.6,36.14 539.8,37.74 L539.8,37.74 L545.8,37.74 C545.48,34.5 544.07,31.9 541.57,29.94 C539.07,27.98 535.86,27 531.94,27 C529.22,27 526.81,27.48 524.71,28.44 C522.61,29.4 520.98,30.76 519.82,32.52 C518.66,34.28 518.08,36.3 518.08,38.58 C518.08,41.18 518.67,43.25 519.85,44.79 C521.03,46.33 522.45,47.46 524.11,48.18 C525.77,48.9 527.98,49.62 530.74,50.34 C532.98,50.94 534.76,51.5 536.08,52.02 C537.4,52.54 538.5,53.3 539.38,54.3 C540.26,55.3 540.7,56.6 540.7,58.2 C540.7,60.24 539.95,61.91 538.45,63.21 C536.95,64.51 534.9,65.16 532.3,65.16 C529.58,65.16 527.51,64.49 526.09,63.15 C524.67,61.81 523.86,60.16 523.66,58.2 L523.66,58.2 L517.84,58.2 C517.88,60.48 518.52,62.49 519.76,64.23 C521,65.97 522.71,67.33 524.89,68.31 C527.07,69.29 529.54,69.78 532.3,69.78 Z" id="EERS" fill="#262626" fill-rule="nonzero"></path>
                <g id="Mountain" stroke="#262626">
                    <circle id="Oval-Copy" stroke-width="2.69230769" fill="#EBCD0A" cx="42.8076923" cy="34.7307692" r="33.3846154"></circle>
                    <polygon id="Path-Copy" stroke-width="3.23076923" fill="#444444" points="133.741548 69.4036297 69.0930403 19.7221393 40.4210749 69.4036297"></polygon>
                    <polygon id="Path-Copy-2" stroke-width="3.23076923" fill="#444444" points="93.3204731 69.6045673 28.6719655 19.9230769 0 69.6045673"></polygon>
                    <polygon id="Path-3" stroke-width="3.23076923" fill="#EBCD0A" points="134.841538 12.4453534 152.982818 69.4036297 100.652705 69.4036297"></polygon>
                    <polygon id="Path-2" stroke-width="3.23076923" fill="#EBCD0A" points="77.5384615 69.4036297 98.9298507 14 127.75873 69.4036297"></polygon>
                </g>
                <path d="M178,69.72 C181.92,69.72 185.48,68.81 188.68,66.99 C191.88,65.17 194.4,62.64 196.24,59.4 C198.08,56.16 199,52.48 199,48.36 C199,44.24 198.08,40.56 196.24,37.32 C194.4,34.08 191.88,31.55 188.68,29.73 C185.48,27.91 181.92,27 178,27 C174.12,27 170.58,27.91 167.38,29.73 C164.18,31.55 161.65,34.09 159.79,37.35 C157.93,40.61 157,44.28 157,48.36 C157,52.44 157.93,56.11 159.79,59.37 C161.65,62.63 164.18,65.17 167.38,66.99 C170.58,68.81 174.12,69.72 178,69.72 Z M178,64.98 C175.08,64.98 172.45,64.3 170.11,62.94 C167.77,61.58 165.93,59.64 164.59,57.12 C163.25,54.6 162.58,51.68 162.58,48.36 C162.58,45 163.25,42.07 164.59,39.57 C165.93,37.07 167.76,35.14 170.08,33.78 C172.4,32.42 175.04,31.74 178,31.74 C180.96,31.74 183.6,32.42 185.92,33.78 C188.24,35.14 190.07,37.07 191.41,39.57 C192.75,42.07 193.42,45 193.42,48.36 C193.42,51.68 192.75,54.6 191.41,57.12 C190.07,59.64 188.23,61.58 185.89,62.94 C183.55,64.3 180.92,64.98 178,64.98 Z M221.8,69.72 C224.76,69.72 227.43,69.14 229.81,67.98 C232.19,66.82 234.08,65.05 235.48,62.67 C236.88,60.29 237.58,57.36 237.58,53.88 L237.58,53.88 L237.58,27.48 L232.12,27.48 L232.12,53.94 C232.12,57.66 231.21,60.42 229.39,62.22 C227.57,64.02 225.06,64.92 221.86,64.92 C218.62,64.92 216.09,64.02 214.27,62.22 C212.45,60.42 211.54,57.66 211.54,53.94 L211.54,53.94 L211.54,27.48 L206.08,27.48 L206.08,53.88 C206.08,57.36 206.77,60.29 208.15,62.67 C209.53,65.05 211.41,66.82 213.79,67.98 C216.17,69.14 218.84,69.72 221.8,69.72 Z M252.16,69.3 L252.16,36 L274.12,69.3 L279.58,69.3 L279.58,27.42 L274.12,27.42 L274.12,60.66 L252.16,27.42 L246.7,27.42 L246.7,69.3 L252.16,69.3 Z M303.22,69.3 L303.22,31.92 L314.62,31.92 L314.62,27.48 L286.3,27.48 L286.3,31.92 L297.76,31.92 L297.76,69.3 L303.22,69.3 Z M324.46,69.3 L327.82,60 L346.06,60 L349.42,69.3 L355.18,69.3 L340.12,27.72 L333.82,27.72 L318.7,69.3 L324.46,69.3 Z M344.5,55.56 L329.38,55.56 L336.94,34.44 L344.5,55.56 Z M367.24,69.3 L367.24,27.48 L361.78,27.48 L361.78,69.3 L367.24,69.3 Z M382,69.3 L382,36 L403.96,69.3 L409.42,69.3 L409.42,27.42 L403.96,27.42 L403.96,60.66 L382,27.42 L376.54,27.42 L376.54,69.3 L382,69.3 Z" id="OUNTAIN" fill="#EBCD0A" fill-rule="nonzero"></path>
            </g>
        </g>
    </g>
</svg>
